HIERARCHY
ROOT Hips
{
  OFFSET -35.4901 99.2528 17.4586
  CHANNELS 6 Xposition Yposition Zposition Zrotation Xrotation Yrotation
  JOINT LeftUpLeg
  {
    OFFSET 8.64259 1.95398 -2.38835
    CHANNELS 3 Zrotation Xrotation Yrotation
    JOINT LeftLeg
    {
      OFFSET 43.7702 0 0
      CHANNELS 3 Zrotation Xrotation Yrotation
      JOINT LeftFoot
      {
        OFFSET 40.6238 0 0
        CHANNELS 3 Zrotation Xrotation Yrotation
        JOINT LeftToeBase
        {
          OFFSET 12.7242 0 0
          CHANNELS 3 Zrotation Xrotation Yrotation
          End Site
          {
            OFFSET 0 0 0
          }
        }
      }
    }
  }
  JOINT RightUpLeg
  {
    OFFSET -8.2249 1.95398 -2.59336
    CHANNELS 3 Zrotation Xrotation Yrotation
    JOINT RightLeg
    {
      OFFSET 43.5653 0 0
      CHANNELS 3 Zrotation Xrotation Yrotation
      JOINT RightFoot
      {
        OFFSET 40.6238 0 0
        CHANNELS 3 Zrotation Xrotation Yrotation
        JOINT RightToeBase
        {
          OFFSET 12.7242 0 0
          CHANNELS 3 Zrotation Xrotation Yrotation
          End Site
          {
            OFFSET 0 0 0
          }
        }
      }
    }
  }
  JOINT Spine
  {
    OFFSET 0.165834 0.87714 6.61349
    CHANNELS 3 Zrotation Xrotation Yrotation
    JOINT Spine1
    {
      OFFSET 7.38963 1.71661e-005 0
      CHANNELS 3 Zrotation Xrotation Yrotation
      JOINT Spine2
      {
        OFFSET 11.9445 1.14441e-005 0
        CHANNELS 3 Zrotation Xrotation Yrotation
        JOINT Spine3
        {
          OFFSET 14.7254 4.19617e-005 0
          CHANNELS 3 Zrotation Xrotation Yrotation
          JOINT Spine4
          {
            OFFSET 10.9679 0 0
            CHANNELS 3 Zrotation Xrotation Yrotation
            JOINT RightShoulder
            {
              OFFSET 2.46616 -1.6653 3.69651
              CHANNELS 3 Zrotation Xrotation Yrotation
              JOINT RightArm
              {
                OFFSET 13.0012 0 0
                CHANNELS 3 Zrotation Xrotation Yrotation
                JOINT RightForeArm
                {
                  OFFSET 28.7848 1.52588e-005 0
                  CHANNELS 3 Zrotation Xrotation Yrotation
                  JOINT RightHand
                  {
                    OFFSET 26.5688 1.52588e-005 0
                    CHANNELS 3 Zrotation Xrotation Yrotation
                    End Site
                    {
                      OFFSET 0 0 0
                    }
                  }
                }
              }
            }
            JOINT LeftShoulder
            {
              OFFSET 2.38034 -1.29275 -3.7523
              CHANNELS 3 Zrotation Xrotation Yrotation
              JOINT LeftArm
              {
                OFFSET 16.3182 6.10351e-005 0
                CHANNELS 3 Zrotation Xrotation Yrotation
                JOINT LeftForeArm
                {
                  OFFSET 27.0901 0 0
                  CHANNELS 3 Zrotation Xrotation Yrotation
                  JOINT LeftHand
                  {
                    OFFSET 24.5451 1.52588e-005 0
                    CHANNELS 3 Zrotation Xrotation Yrotation
                    End Site
                    {
                      OFFSET 0 0 0
                    }
                  }
                }
              }
            }
            JOINT Neck
            {
              OFFSET 5.0226 -0.0266342 0
              CHANNELS 3 Zrotation Xrotation Yrotation
              JOINT Head
              {
                OFFSET 6.69364 2.86102e-005 0
                CHANNELS 3 Zrotation Xrotation Yrotation
                End Site
                {
                  OFFSET 0 0 0
                }
              }
            }
          }
        }
      }
    }
  }
}
MOTION
Frames:	15
Frame Time:	0.0416667
-25.4184 88.712 2.93784 101.356 30.9419 75.2123 -174.626 25.6191 78.6068 -57.3385 13.8805 -2.28391 79.4782 8.6857 -0.165545 11.5702 -3.2168 5.24216 178.706 15.3011 79.1291 -94.1828 -13.2043 -2.45648 67.374 -4.55056 -4.55883 24.1606 -3.70558 9.49938 -0.0780344 7.94483 -89.1011 10.978 0.261078 1.76521 -0.694059 0.338501 1.75201 -23.2196 -0.281429 1.76208 -3.20698 -0.281437 1.76208 93.7954 -21.9262 -101.664 50.9319 1.764 4.10193 6.6584 -8.21675 -4.99762 -22.8624 1.08607 -11.8631 -85.3636 -42.6507 84.6006 -4.51793 -1.39521 -18.3808 5.75379 25.9005 -1.68199 5.29763 0.561551 5.29788 1.57862 6.86133 -1.42948 -10.1958 6.4776 7.45406 
-20.6424 93.1199 -0.0309485 103.42 29.8782 78.491 -175.298 15.7958 83.9158 -49.7645 14.3756 -1.6324 77.0342 7.58853 -0.810595 13.9322 -2.08452 3.81062 178.908 21.0464 84.2669 -92.026 0.0356124 -2.04471 69.7933 -5.8871 -4.26195 21.1148 -3.60855 9.00953 -0.263559 8.09599 -89.7185 10.6827 -0.395122 0.595738 -0.988365 -0.368506 0.612539 -23.5233 -0.555887 0.449457 -3.51067 -0.555891 0.449446 94.0505 -18.7672 -102.23 50.3533 2.53822 5.02317 5.90048 -6.52652 -5.03425 -20.8715 1.2249 -13.1084 -85.0071 -35.6803 84.0349 -8.03187 -1.5449 -19.6903 5.64532 21.9675 0.00915177 6.76157 0.630207 4.6345 -3.46403 7.15244 0.374513 -9.42116 6.55702 8.22847 
-15.8147 98.9562 -3.37524 106.344 29.4659 80.9646 -175.889 5.26379 88.3446 -38.3284 15.0815 -0.229918 65.029 2.56113 -1.37678 19.0375 1.63243 -1.42641 177.81 21.2368 88.1726 -81.0961 0.564172 -2.06404 69.0893 -5.24882 -4.8982 21.0077 -3.3783 8.49169 -0.341476 8.30253 -90.3845 10.2646 -0.855985 -0.689435 -1.40622 -0.885515 -0.651094 -23.9411 -0.609244 -0.914814 -3.92849 -0.609232 -0.914815 93.6947 -16.3355 -104.115 49.1859 2.06485 7.60954 6.75362 -9.03398 -5.48231 -20.1511 1.30003 -14.2987 -84.4451 -33.5342 84.6725 -10.8863 -2.92561 -20.578 7.85593 23.1811 -2.44061 7.10926 0.5061 2.81567 -12.6779 6.61323 4.55444 -6.32982 6.21142 8.00314 
-11.3404 103.764 -6.34493 107.02 30.8585 82.4048 -175.89 2.47758 90.1926 -34.3194 20.825 1.44702 52.9721 -2.30529 -2.42983 13.7475 1.62648 -0.946508 177.122 20.7177 89.4871 -68.0372 -2.15327 -2.19912 70.4953 -5.48617 -2.35304 20.9645 -2.93477 7.46114 -0.319865 8.33936 -90.7031 10.1865 -0.958087 -1.31419 -1.48473 -1.01499 -1.27076 -24.0155 -0.5189 -1.54133 -4.00284 -0.51887 -1.54133 92.757 -16.7934 -106.272 47.3802 0.856137 11.0286 7.78972 -11.3215 -5.09899 -20.2365 1.31844 -14.8424 -84.4083 -30.9674 84.2743 -13.9302 -2.18673 -22.1867 8.47453 23.4606 -3.82655 7.72757 0.494357 2.23421 -19.1889 5.18048 3.88299 -3.26768 5.26174 8.37788 
-7.38676 105.842 -8.70159 106.004 34.3756 81.8559 -175.886 7.10491 90.3589 -38.6922 23.8885 1.69797 50.2532 -3.27678 -3.11217 15.292 -0.383616 1.52232 176.148 21.4331 88.267 -56.4009 -2.25564 -2.56643 74.0004 -6.67837 -1.08002 22.0909 -1.8913 5.17638 -0.362908 8.31009 -90.6164 10.2475 -1.00462 -1.13827 -1.42352 -1.05373 -1.09296 -23.9561 -0.616116 -1.38753 -3.94346 -0.616104 -1.38754 92.5371 -17.9632 -106.264 47.6339 0.834768 13.2691 8.47624 -12.1913 -4.31878 -19.0307 1.17107 -14.7139 -84.3386 -31.1471 84.4409 -13.6434 -0.35702 -25.5094 7.35661 23.356 -3.131 6.71706 0.476848 2.77656 -20.2199 3.68145 2.17248 -1.67206 3.84068 6.93816 
-3.45461 106.388 -10.7223 106.683 37.374 80.851 -174.806 9.77765 91.3536 -37.209 22.1362 0.284186 49.1366 -3.50078 -4.59442 21.9311 -4.40553 7.12829 175.445 18.5435 87.6858 -42.0769 -3.16783 -3.3394 77.2095 -7.52088 1.16137 23.0599 -2.0479 5.52641 -0.315634 8.4358 -90.5077 9.9979 -0.859857 -0.936767 -1.67307 -0.900232 -0.898025 -24.2066 -0.538583 -1.15186 -4.19394 -0.538561 -1.15186 92.4694 -19.713 -105.633 48.6098 1.94148 15.3318 8.24641 -12.04 -4.53278 -18.7665 1.15588 -14.7303 -84.5101 -30.8943 84.0644 -16.2956 0.215342 -27.8173 6.85333 25.2486 -1.15731 5.53634 0.411553 2.88359 -19.9302 2.38825 -0.463473 -1.31989 2.44729 6.49829 
0.450749 105.284 -12.7191 106 40.0604 81.2692 -174.9 13.245 92.4513 -31.3609 15.1137 -1.07434 51.5154 -2.54431 -4.47203 16.1968 -1.21105 2.5757 174.073 15.7998 87.5182 -26.9106 -9.66474 -2.88041 73.456 -6.28811 0.0135586 26.5157 -0.816144 2.4053 -0.337865 8.44376 -90.4403 9.98264 -0.873451 -0.802169 -1.68824 -0.907904 -0.762946 -24.2226 -0.591988 -1.02757 -4.20998 -0.592009 -1.02758 92.1645 -21.047 -105.764 49.7716 2.48052 16.5281 7.82394 -12.4257 -5.26266 -18.9008 1.15632 -14.7166 -84.3751 -32.3471 84.5924 -16.3768 2.74337 -26.9795 5.68672 23.4931 -1.44579 6.53189 0.510735 3.35768 -18.8018 1.6961 -2.03525 -1.76822 1.67998 5.36807 
4.40977 101.784 -14.6769 102.886 43.1444 83.6141 -176.481 19.4893 93.2156 -27.6415 11.6164 -0.814753 59.1497 0.242817 -3.56539 9.16751 -3.34039 5.33153 172.332 17.3746 87.6669 -19.9329 -12.4127 -0.874399 70.0585 -5.05993 -0.228526 28.1049 -0.559578 1.5833 -0.413745 8.34747 -90.4576 10.1748 -1.03315 -0.820754 -1.49597 -1.06826 -0.774494 -24.031 -0.738713 -1.0933 -4.01832 -0.738724 -1.0933 91.8291 -22.4307 -105.94 50.1595 2.11131 16.266 7.69136 -11.4353 -6.02285 -19.0459 1.2266 -14.8798 -84.3989 -35.0479 85.024 -17.0626 4.39704 -25.4315 5.24473 22.6948 -2.25972 6.44392 0.60488 4.56473 -14.7232 1.25185 -3.87055 -3.51576 1.23952 5.24012 
8.49952 95.503 -16.679 100.168 45.0494 85.9729 -178.196 29.5749 93.7359 -36.7789 28.9608 2.58515 56.9586 -0.835124 -0.949075 7.50929 -1.00272 2.64456 170.856 24.8993 88.3008 -31.9201 -10.0657 1.21536 70.8539 -4.98363 1.34703 30.3436 -0.21681 0.52084 -0.378729 8.3652 -90.469 10.1392 -0.968438 -0.849365 -1.53163 -1.00488 -0.805933 -24.0661 -0.668415 -1.10114 -4.05349 -0.668401 -1.10114 90.6068 -25.715 -107.227 48.1133 0.984948 15.3802 7.59734 -10.3896 -6.65202 -18.9679 1.27991 -15.0558 -84.9079 -38.9056 84.7652 -16.5738 5.54236 -24.233 4.02343 22.4148 -1.16842 5.61514 0.60545 5.58275 -6.60176 0.8278 -5.63372 -6.6922 1.13034 4.19569 
12.5023 88.3928 -18.6837 102.317 46.3846 85.4263 -179.838 36.7035 95.5561 -60.1322 32.6395 7.72615 69.1933 4.50467 0.516049 18.4965 -1.35994 2.72619 170.17 31.3774 89.2874 -48.9641 -15.0912 2.20689 71.4051 -5.11734 -0.424951 17.1141 -2.59132 6.63419 -0.345762 8.56433 -90.515 9.74051 -0.922243 -0.948672 -1.93043 -0.963096 -0.907174 -24.4641 -0.594526 -1.18197 -4.45144 -0.594509 -1.18197 90.1907 -28.5272 -106.949 46.1752 -1.80312 13.1838 9.29633 -12.3142 -4.46064 -18.9709 1.10559 -14.336 -85.8634 -43.3595 83.9043 -16.0105 6.0531 -22.4624 2.7285 23.4788 0.00449296 5.58715 0.491114 3.97554 0.529064 0.377167 -5.6502 -6.72211 1.03194 3.79258 
15.3308 81.776 -19.9791 100.047 44.156 86.4018 -178.321 46.3692 96.0366 -78.4438 29.7059 7.58267 76.2794 7.79303 0.988923 21.1912 -2.39494 4.13879 171.588 42.0375 90.5759 -69.4376 -13.8976 0.798058 80.5311 -10.1612 -2.36613 22.3493 -2.64002 6.8838 -0.0916709 8.56315 -90.4034 9.74604 -0.365316 -0.769487 -1.92507 -0.398819 -0.752674 -24.4585 -0.117176 -0.843701 -4.44584 -0.117163 -0.843702 92.1596 -30.0254 -102.443 44.0247 -5.26626 5.35103 10.6293 -18.9441 -1.69161 -21.8461 0.537852 -10.8165 -83.9158 -48.9956 87.7759 -16.8529 5.97009 -20.9249 3.68043 27.532 -1.64378 5.19801 0.538001 5.10342 9.3866 0.843593 -2.24981 -6.53168 1.33557 0.148075 
18.0846 79.7062 -22.2848 102.41 42.3476 84.4877 -177.294 44.9071 96.1265 -85.0879 26.4793 7.77698 82.758 10.5619 0.598345 20.4642 -1.52284 2.90386 171.378 40.5973 89.7851 -75.6632 -15.2671 0.678791 87.544 -13.3566 -1.54079 21.0741 -2.37035 6.26554 -0.0144679 8.71209 -90.2726 9.44876 -0.151471 -0.52965 -2.22228 -0.17464 -0.522476 -24.7566 0.0147021 -0.550688 -4.74392 0.0147083 -0.550691 91.0727 -29.494 -104.807 44.3227 -5.94297 2.84506 8.38244 -19.3372 -6.16699 -22.3552 0.477983 -10.2987 -84.1797 -49.5283 87.422 -21.9556 7.04175 -13.1221 5.51506 33.559 -4.74283 6.32261 0.792139 7.28015 8.55741 1.28488 -2.44894 -2.75464 1.77765 0.431627 
20.332 79.9886 -24.339 103.163 42.4678 83.6783 -176.923 42.208 96.1449 -85.7892 26.7789 8.0703 82.8216 10.5312 0.306294 23.5933 -0.0915387 0.569841 170.861 38.1673 88.9501 -76.9272 -15.5819 0.684076 90.5525 -14.4691 -0.899887 19.9763 -2.1161 5.67326 0.0452548 8.55983 -90.3319 9.75367 -0.0599598 -0.65344 -1.91742 -0.0886633 -0.650174 -24.4513 0.139178 -0.641253 -4.43868 0.139193 -0.641249 91.2522 -28.6106 -104.76 43.4183 -9.00222 -0.108439 9.33938 -22.5489 -5.40852 -22.617 0.475421 -10.7671 -83.9436 -50.0834 87.8448 -25.6503 11.5198 -11.9646 0.441372 31.8687 0.0405521 5.47365 0.471671 3.63886 6.73497 1.11157 -1.63714 -3.25935 1.41237 0.073453 
22.2177 82.8055 -25.9562 103.682 41.2093 82.7144 -174.845 37.3712 96.2535 -81.1805 28.0853 6.98093 80.8189 9.73533 0.844512 27.8551 0.230328 -0.297741 171.63 33.1572 88.1619 -72.1868 -16.1278 0.30972 90.0405 -14.3061 -1.01687 20.128 -2.17185 5.7969 0.303298 8.46504 -90.3718 9.94469 0.435475 -0.773417 -1.72644 0.400997 -0.791835 -24.2609 0.64778 -0.606779 -4.24829 0.647756 -0.606798 92.0076 -27.7056 -103.53 43.8941 -8.3606 -1.3377 9.11789 -19.7329 -5.70575 -25.0695 0.568611 -10.1987 -83.867 -51.6057 88.1255 -28.528 11.6148 -8.43211 0.662185 30.0429 0.00115771 5.27721 0.485894 4.23582 5.96185 0.710568 -0.887263 -2.79952 0.869638 -0.436854 
23.7194 86.603 -27.4883 104.283 41.001 81.2783 -173.724 30.0868 96.1791 -71.8481 29.4619 5.52661 81.8399 9.64778 -2.0918 19.9046 -0.916892 2.05396 171.602 26.6322 86.6525 -63.795 -17.0243 -0.106494 88.4955 -13.4866 -0.763938 20.6564 -2.07219 5.58038 0.314863 8.30588 -90.2133 10.263 0.529966 -0.468818 -1.40789 0.508829 -0.491708 -23.9436 0.646384 -0.287864 -3.93094 0.646369 -0.287875 91.1753 -28.7386 -104.871 44.1071 -8.15851 -0.722474 9.37241 -15.7638 -5.69738 -25.7437 0.963308 -11.4102 -83.7259 -50.5682 88.2249 -31.2768 9.70394 -4.71337 1.53671 28.4458 0.0405975 6.70518 0.635217 4.75923 4.25332 0.456356 -1.48326 -2.2566 0.711441 -0.579573 
